<svg xmlns="http://www.w3.org/2000/svg" class="graphdiagram" viewBox="-5171.73523503326 -111.78950569128301 4076.939352967668 1989.6313404847422"><g class="layer relationships"><g class="related-pair"><g class="relationship" transform="translate(-2685.6611271328406,358.9479938586555) rotate(144.13003770178545)"><path class="relationship" d="M 123.87516434486017 4 L 736.6517304362711 4 L 736.6517304362711 16 L 768.6517304362711 0 L 736.6517304362711 -16 L 736.6517304362711 -4 L 123.87516434486017 -4 Z" fill="rgb(0, 0, 0)" stroke="rgb(51, 51, 51)" stroke-width="0px"/><text class="type" text-anchor="middle" baseline-shift="30%" alignment-baseline="alphabetic" transform="rotate(180)" x="-430.2634473905656" y="0" font-size="50px" font-family="&quot;Gill Sans&quot;, &quot;Gill Sans MT&quot;, Calibri, sans-serif">REQUIRES</text></g></g><g class="related-pair"><g class="relationship" transform="translate(-2181.6675792100723,882.8570476616748) rotate(180)"><path class="relationship" d="M 115.73692581347275 4 L 1071.0739601258701 4 L 1071.0739601258701 16 L 1103.0739601258701 0 L 1071.0739601258701 -16 L 1071.0739601258701 -4 L 115.73692581347275 -4 Z" fill="rgb(0, 0, 0)" stroke="rgb(51, 51, 51)" stroke-width="0px"/><text class="type" text-anchor="middle" baseline-shift="30%" alignment-baseline="alphabetic" transform="rotate(180)" x="-593.4054429696714" y="0" font-size="50px" font-family="&quot;Gill Sans&quot;, &quot;Gill Sans MT&quot;, Calibri, sans-serif">HAS_TAKEN</text></g></g><g class="related-pair"><g class="relationship" transform="translate(-2181.6675792100723,882.8570476616748) rotate(-133.89003911197995)"><path class="relationship" d="M 115.73692581347275 4 L 571.0981453471496 4 L 571.0981453471496 16 L 603.0981453471496 0 L 571.0981453471496 -16 L 571.0981453471496 -4 L 115.73692581347275 -4 Z" fill="rgb(0, 0, 0)" stroke="rgb(51, 51, 51)" stroke-width="0px"/><text class="type" text-anchor="middle" baseline-shift="30%" alignment-baseline="alphabetic" transform="rotate(180)" x="-343.4175355803112" y="0" font-size="50px" font-family="&quot;Gill Sans&quot;, &quot;Gill Sans MT&quot;, Calibri, sans-serif">BELONGS_TO</text></g></g><g class="related-pair"><g class="relationship" transform="translate(-2795.2028096516924,1475.870868704054) rotate(-136.0431349419859)"><path class="relationship" d="M 125.47096608940512 4 L 696.8722423712738 4 L 696.8722423712738 16 L 728.8722423712738 0 L 696.8722423712738 -16 L 696.8722423712738 -4 L 125.47096608940512 -4 Z" fill="rgb(0, 0, 0)" stroke="rgb(51, 51, 51)" stroke-width="0px"/><text class="type" text-anchor="middle" baseline-shift="30%" alignment-baseline="alphabetic" transform="rotate(180)" x="-411.1716042303395" y="0" font-size="50px" font-family="&quot;Gill Sans&quot;, &quot;Gill Sans MT&quot;, Calibri, sans-serif">IS_PREREQUISITE</text></g></g><g class="related-pair"><g class="relationship" transform="translate(-2181.6675792100723,882.8570476616748) rotate(135.97441275791977)"><path class="relationship" d="M 115.73692581347275 4 L 695.8114437494095 4 L 695.8114437494095 16 L 727.8114437494095 0 L 695.8114437494095 -16 L 695.8114437494095 -4 L 115.73692581347275 -4 Z" fill="rgb(0, 0, 0)" stroke="rgb(51, 51, 51)" stroke-width="0px"/><text class="type" text-anchor="middle" baseline-shift="30%" alignment-baseline="alphabetic" transform="rotate(180)" x="-405.7741847814411" y="0" font-size="50px" font-family="&quot;Gill Sans&quot;, &quot;Gill Sans MT&quot;, Calibri, sans-serif">HAS_TAKEN</text></g></g></g><g class="layer nodes"><circle class="node node-id-0" r="110.47096608940512" fill="rgb(255, 255, 255)" stroke="rgb(0, 0, 0)" stroke-width="8px" cx="-3410.2125054253474" cy="882.8570476616748"/><circle class="node node-id-1" r="108.87516434486017" fill="rgb(255, 255, 255)" stroke="rgb(0, 0, 0)" stroke-width="8px" cx="-2685.6611271328406" cy="358.9479938586555"/><circle class="node node-id-2" r="100.73692581347275" fill="rgb(255, 255, 255)" stroke="rgb(0, 0, 0)" stroke-width="8px" cx="-2181.6675792100723" cy="882.8570476616748"/><circle class="node node-id-3" r="110.47096608940512" fill="rgb(255, 255, 255)" stroke="rgb(0, 0, 0)" stroke-width="8px" cx="-2795.2028096516924" cy="1475.870868704054"/><g class="caption"><text class="caption node" text-anchor="middle" alignment-baseline="central" x="-3410.2125054253474" y="882.8570476616748" fill="rgb(51, 51, 51)" font-size="50px" font-family="&quot;Gill Sans&quot;, &quot;Gill Sans MT&quot;, Calibri, sans-serif">Course1</text></g><g class="caption"><text class="caption node" text-anchor="middle" alignment-baseline="central" x="-2685.6611271328406" y="358.9479938586555" fill="rgb(51, 51, 51)" font-size="50px" font-family="&quot;Gill Sans&quot;, &quot;Gill Sans MT&quot;, Calibri, sans-serif">Program</text></g><g class="caption"><text class="caption node" text-anchor="middle" alignment-baseline="central" x="-2181.6675792100723" y="882.8570476616748" fill="rgb(51, 51, 51)" font-size="50px" font-family="&quot;Gill Sans&quot;, &quot;Gill Sans MT&quot;, Calibri, sans-serif">Student</text></g><g class="caption"><text class="caption node" text-anchor="middle" alignment-baseline="central" x="-2795.2028096516924" y="1475.870868704054" fill="rgb(51, 51, 51)" font-size="50px" font-family="&quot;Gill Sans&quot;, &quot;Gill Sans MT&quot;, Calibri, sans-serif">Course2</text></g></g><g class="layer properties"><g class="speech-bubble node-speech-bubble" transform="translate(-3520.6834715147525,882.8570476616748) "><path class="speech-bubble-outline" transform="scale(-1,1) " d="M 0 0 L 20 -10 L 20 -125 A 10 10 0 0 1 30 -135 L 657.4169921875 -135 A 10 10 0 0 1 667.4169921875 -125 L 667.4169921875 125 A 10 10 0 0 1 657.4169921875 135 L 30 135 A 10 10 0 0 1 20 125 L 20 10 Z" fill="rgb(255, 255, 255)" stroke="rgb(0, 0, 0)" stroke-width="3px"/><text class="speech-bubble-content property-key" x="-406.025390625" y="-100" alignment-baseline="central" text-anchor="end" font-size="50px" font-family="&quot;Gill Sans&quot;, &quot;Gill Sans MT&quot;, Calibri, sans-serif" xml:space="preserve">number: </text><text class="speech-bubble-content property-key" x="-406.025390625" y="-50" alignment-baseline="central" text-anchor="end" font-size="50px" font-family="&quot;Gill Sans&quot;, &quot;Gill Sans MT&quot;, Calibri, sans-serif" xml:space="preserve">title: </text><text class="speech-bubble-content property-key" x="-406.025390625" y="0" alignment-baseline="central" text-anchor="end" font-size="50px" font-family="&quot;Gill Sans&quot;, &quot;Gill Sans MT&quot;, Calibri, sans-serif" xml:space="preserve">credits: </text><text class="speech-bubble-content property-key" x="-406.025390625" y="50" alignment-baseline="central" text-anchor="end" font-size="50px" font-family="&quot;Gill Sans&quot;, &quot;Gill Sans MT&quot;, Calibri, sans-serif" xml:space="preserve">semester: </text><text class="speech-bubble-content property-value" x="-406.025390625" y="-100" alignment-baseline="central" font-size="50px" font-family="&quot;Gill Sans&quot;, &quot;Gill Sans MT&quot;, Calibri, sans-serif">courseNumber</text><text class="speech-bubble-content property-value" x="-406.025390625" y="-50" alignment-baseline="central" font-size="50px" font-family="&quot;Gill Sans&quot;, &quot;Gill Sans MT&quot;, Calibri, sans-serif">courseTitle</text><text class="speech-bubble-content property-value" x="-406.025390625" y="0" alignment-baseline="central" font-size="50px" font-family="&quot;Gill Sans&quot;, &quot;Gill Sans MT&quot;, Calibri, sans-serif">courseCredits</text><text class="speech-bubble-content property-value" x="-406.025390625" y="50" alignment-baseline="central" font-size="50px" font-family="&quot;Gill Sans&quot;, &quot;Gill Sans MT&quot;, Calibri, sans-serif">courseSemester</text><text class="speech-bubble-content property-key" x="-406.025390625" y="100" alignment-baseline="central" text-anchor="end" font-size="50px" font-family="&quot;Gill Sans&quot;, &quot;Gill Sans MT&quot;, Calibri, sans-serif" xml:space="preserve">description: </text><text class="speech-bubble-content property-value" x="-406.025390625" y="100" alignment-baseline="central" font-size="50px" font-family="&quot;Gill Sans&quot;, &quot;Gill Sans MT&quot;, Calibri, sans-serif">courseDescription</text></g><g class="speech-bubble node-speech-bubble" transform="translate(-2685.6611271328406,250.0728295137953) "><path class="speech-bubble-outline" transform="scale(1,-1) " d="M 0 0 L -10 20 L -184.46044921875 20 A 10 10 0 0 0 -194.46044921875 30 L -194.46044921875 80 A 10 10 0 0 0 -184.46044921875 90 L 184.46044921875 90 A 10 10 0 0 0 194.46044921875 80 L 194.46044921875 30 A 10 10 0 0 0 184.46044921875 20 L 10 20 Z" fill="rgb(255, 255, 255)" stroke="rgb(0, 0, 0)" stroke-width="3px"/><text class="speech-bubble-content property-key" x="-80.43212890625" y="-55" alignment-baseline="central" text-anchor="end" font-size="50px" font-family="&quot;Gill Sans&quot;, &quot;Gill Sans MT&quot;, Calibri, sans-serif" xml:space="preserve">title: </text><text class="speech-bubble-content property-value" x="-80.43212890625" y="-55" alignment-baseline="central" font-size="50px" font-family="&quot;Gill Sans&quot;, &quot;Gill Sans MT&quot;, Calibri, sans-serif">programTitle</text></g><g class="speech-bubble node-speech-bubble" transform="translate(-2795.2028096516924,1586.341834793459) "><path class="speech-bubble-outline" transform="scale(1,1) " d="M 0 0 L -10 20 L -326.20849609375 20 A 10 10 0 0 0 -336.20849609375 30 L -336.20849609375 280 A 10 10 0 0 0 -326.20849609375 290 L 326.20849609375 290 A 10 10 0 0 0 336.20849609375 280 L 336.20849609375 30 A 10 10 0 0 0 326.20849609375 20 L 10 20 Z" fill="rgb(255, 255, 255)" stroke="rgb(0, 0, 0)" stroke-width="3px"/><text class="speech-bubble-content property-key" x="-74.81689453125" y="55" alignment-baseline="central" text-anchor="end" font-size="50px" font-family="&quot;Gill Sans&quot;, &quot;Gill Sans MT&quot;, Calibri, sans-serif" xml:space="preserve">number: </text><text class="speech-bubble-content property-key" x="-74.81689453125" y="105" alignment-baseline="central" text-anchor="end" font-size="50px" font-family="&quot;Gill Sans&quot;, &quot;Gill Sans MT&quot;, Calibri, sans-serif" xml:space="preserve">title: </text><text class="speech-bubble-content property-key" x="-74.81689453125" y="155" alignment-baseline="central" text-anchor="end" font-size="50px" font-family="&quot;Gill Sans&quot;, &quot;Gill Sans MT&quot;, Calibri, sans-serif" xml:space="preserve">credits: </text><text class="speech-bubble-content property-key" x="-74.81689453125" y="205" alignment-baseline="central" text-anchor="end" font-size="50px" font-family="&quot;Gill Sans&quot;, &quot;Gill Sans MT&quot;, Calibri, sans-serif" xml:space="preserve">semester: </text><text class="speech-bubble-content property-value" x="-74.81689453125" y="55" alignment-baseline="central" font-size="50px" font-family="&quot;Gill Sans&quot;, &quot;Gill Sans MT&quot;, Calibri, sans-serif">course2Number</text><text class="speech-bubble-content property-value" x="-74.81689453125" y="105" alignment-baseline="central" font-size="50px" font-family="&quot;Gill Sans&quot;, &quot;Gill Sans MT&quot;, Calibri, sans-serif">course2Title</text><text class="speech-bubble-content property-value" x="-74.81689453125" y="155" alignment-baseline="central" font-size="50px" font-family="&quot;Gill Sans&quot;, &quot;Gill Sans MT&quot;, Calibri, sans-serif">course2Credits</text><text class="speech-bubble-content property-value" x="-74.81689453125" y="205" alignment-baseline="central" font-size="50px" font-family="&quot;Gill Sans&quot;, &quot;Gill Sans MT&quot;, Calibri, sans-serif">courseSemester</text><text class="speech-bubble-content property-key" x="-74.81689453125" y="255" alignment-baseline="central" text-anchor="end" font-size="50px" font-family="&quot;Gill Sans&quot;, &quot;Gill Sans MT&quot;, Calibri, sans-serif" xml:space="preserve">description: </text><text class="speech-bubble-content property-value" x="-74.81689453125" y="255" alignment-baseline="central" font-size="50px" font-family="&quot;Gill Sans&quot;, &quot;Gill Sans MT&quot;, Calibri, sans-serif">course2Description</text></g></g><g class="layer overlay"><circle class="node overlay" r="114.47096608940512" stroke="none" fill="rgba(255, 255, 255, 0)" cx="-3410.2125054253474" cy="882.8570476616748"/><circle class="node overlay" r="112.87516434486017" stroke="none" fill="rgba(255, 255, 255, 0)" cx="-2685.6611271328406" cy="358.9479938586555"/><circle class="node overlay" r="104.73692581347275" stroke="none" fill="rgba(255, 255, 255, 0)" cx="-2181.6675792100723" cy="882.8570476616748"/><circle class="node overlay" r="114.47096608940512" stroke="none" fill="rgba(255, 255, 255, 0)" cx="-2795.2028096516924" cy="1475.870868704054"/><circle class="node ring" r="119.47096608940512" fill="none" stroke="rgba(255, 255, 255, 0)" stroke-width="10px" cx="-3410.2125054253474" cy="882.8570476616748"/><circle class="node ring" r="117.87516434486017" fill="none" stroke="rgba(255, 255, 255, 0)" stroke-width="10px" cx="-2685.6611271328406" cy="358.9479938586555"/><circle class="node ring" r="109.73692581347275" fill="none" stroke="rgba(255, 255, 255, 0)" stroke-width="10px" cx="-2181.6675792100723" cy="882.8570476616748"/><circle class="node ring" r="119.47096608940512" fill="none" stroke="rgba(255, 255, 255, 0)" stroke-width="10px" cx="-2795.2028096516924" cy="1475.870868704054"/><path class="relationship overlay" fill="rgba(255, 255, 255, 0)" stroke="rgba(255, 255, 255, 0)" stroke-width="10px" transform="translate(-2685.6611271328406,358.9479938586555) rotate(144.13003770178545)" d="M 123.87516434486017 4 L 736.6517304362711 4 L 736.6517304362711 16 L 768.6517304362711 0 L 736.6517304362711 -16 L 736.6517304362711 -4 L 123.87516434486017 -4 Z"/><path class="relationship overlay" fill="rgba(255, 255, 255, 0)" stroke="rgba(255, 255, 255, 0)" stroke-width="10px" transform="translate(-2181.6675792100723,882.8570476616748) rotate(180)" d="M 115.73692581347275 4 L 1071.0739601258701 4 L 1071.0739601258701 16 L 1103.0739601258701 0 L 1071.0739601258701 -16 L 1071.0739601258701 -4 L 115.73692581347275 -4 Z"/><path class="relationship overlay" fill="rgba(255, 255, 255, 0)" stroke="rgba(255, 255, 255, 0)" stroke-width="10px" transform="translate(-2181.6675792100723,882.8570476616748) rotate(-133.89003911197995)" d="M 115.73692581347275 4 L 571.0981453471496 4 L 571.0981453471496 16 L 603.0981453471496 0 L 571.0981453471496 -16 L 571.0981453471496 -4 L 115.73692581347275 -4 Z"/><path class="relationship overlay" fill="rgba(255, 255, 255, 0)" stroke="rgba(255, 255, 255, 0)" stroke-width="10px" transform="translate(-2795.2028096516924,1475.870868704054) rotate(-136.0431349419859)" d="M 125.47096608940512 4 L 696.8722423712738 4 L 696.8722423712738 16 L 728.8722423712738 0 L 696.8722423712738 -16 L 696.8722423712738 -4 L 125.47096608940512 -4 Z"/><path class="relationship overlay" fill="rgba(255, 255, 255, 0)" stroke="rgba(255, 255, 255, 0)" stroke-width="10px" transform="translate(-2181.6675792100723,882.8570476616748) rotate(135.97441275791977)" d="M 115.73692581347275 4 L 695.8114437494095 4 L 695.8114437494095 16 L 727.8114437494095 0 L 695.8114437494095 -16 L 695.8114437494095 -4 L 115.73692581347275 -4 Z"/></g></svg>